<?xml version="1.0" encoding="UTF-8" standalone="no"?><!DOCTYPE svg PUBLIC "-//W3C//DTD SVG 1.1//EN" "http://www.w3.org/Graphics/SVG/1.1/DTD/svg11.dtd"><svg width="100%" height="100%" viewBox="0 0 90 90" version="1.1" xmlns="http://www.w3.org/2000/svg" xmlns:xlink="http://www.w3.org/1999/xlink" xml:space="preserve" xmlns:serif="http://www.serif.com/" style="fill-rule:evenodd;clip-rule:evenodd;stroke-linejoin:round;stroke-miterlimit:2;"><rect id="Artboard1" x="0" y="0" width="90" height="90" style="fill:none;"/><clipPath id="_clip1"><rect id="Artboard11" serif:id="Artboard1" x="0" y="0" width="90" height="90"/></clipPath><g clip-path="url(#_clip1)"><path d="M31.804,69.058l-0,-28.163c7.964,1.645 13.846,7.317 13.846,14.082c-0,6.764 -5.882,12.435 -13.846,14.081m-4.737,-35.315c-14.949,0 -27.067,9.507 -27.067,21.234c-0,7.637 5.142,14.33 12.857,18.071l-0,-8.708c-2.722,-2.532 -4.373,-5.791 -4.373,-9.363c0,-6.765 5.882,-12.437 13.847,-14.082l-0,34.984c1.538,0.213 3.119,0.331 4.736,0.331c14.949,-0 27.067,-9.507 27.067,-21.233c0,-11.727 -12.118,-21.234 -27.067,-21.234" style="fill:#fff;fill-rule:nonzero;"/><path d="M17.828,21.362c0,-4.484 3.912,-7.572 9.239,-7.572c5.435,0 9.239,3.088 9.239,7.572c-0,4.484 -3.804,7.672 -9.239,7.672c-5.327,0 -9.239,-3.188 -9.239,-7.672" style="fill:#fff;fill-rule:nonzero;"/><g transform="matrix(1,0,0,0.916667,0,3.75303)"><g transform="matrix(37.259,0,0,37.259,90.4471,78.5967)"></g><text x="52.598px" y="78.597px" style="font-family:'SourceSansPro-Black', 'Source Sans Pro', sans-serif;font-weight:900;font-size:37.259px;fill:#fff;">e<tspan x="70.178px " y="78.597px ">v</tspan></text></g></g></svg>